<svg width="18" height="14" viewBox="0 0 18 14" fill="none" xmlns="http://www.w3.org/2000/svg">
<path d="M15.2303 1.16349C14.0902 0.621128 12.8559 0.227481 11.5702 4.02379e-05C11.5589 -0.000327694 11.5477 0.00183131 11.5373 0.0063655C11.527 0.0108997 11.5177 0.0176989 11.5102 0.0262836C11.3559 0.314958 11.1759 0.691109 11.0559 0.979784C9.69212 0.769839 8.30523 0.769839 6.94147 0.979784C6.82147 0.682362 6.64147 0.314958 6.4786 0.0262836C6.47003 0.00878813 6.44432 4.02379e-05 6.4186 4.02379e-05C5.13285 0.227481 3.9071 0.621128 2.7585 1.16349C2.74993 1.16349 2.74136 1.17223 2.73279 1.18098C0.401295 4.7413 -0.24158 8.20539 0.0755713 11.6345C0.0755713 11.652 0.0841429 11.6695 0.101286 11.6782C1.64419 12.8329 3.12708 13.5327 4.59284 13.9964C4.61855 14.0051 4.64427 13.9964 4.65284 13.9789C4.99571 13.4978 5.30429 12.9904 5.57001 12.4568C5.58715 12.4218 5.57001 12.3868 5.53572 12.378C5.04714 12.1856 4.58427 11.9582 4.12997 11.6957C4.09568 11.6782 4.09568 11.6257 4.1214 11.5995C4.21568 11.5295 4.30997 11.4508 4.40426 11.3808C4.4214 11.3633 4.44712 11.3633 4.46426 11.3721C7.41292 12.7455 10.593 12.7455 13.5074 11.3721C13.5245 11.3633 13.5502 11.3633 13.5674 11.3808C13.6617 11.4595 13.7559 11.5295 13.8502 11.6083C13.8845 11.6345 13.8845 11.687 13.8417 11.7045C13.3959 11.9757 12.9245 12.1943 12.4359 12.3868C12.4016 12.3955 12.3931 12.4393 12.4016 12.4655C12.6759 12.9991 12.9845 13.5065 13.3188 13.9876C13.3445 13.9964 13.3702 14.0051 13.3959 13.9964C14.8703 13.5327 16.3532 12.8329 17.8961 11.6782C17.9132 11.6695 17.9218 11.652 17.9218 11.6345C18.2989 7.67178 17.296 4.23393 15.2646 1.18098C15.256 1.17223 15.2474 1.16349 15.2303 1.16349ZM6.01573 9.54379C5.13285 9.54379 4.39569 8.71276 4.39569 7.68928C4.39569 6.66579 5.11571 5.83476 6.01573 5.83476C6.92433 5.83476 7.64435 6.67454 7.63578 7.68928C7.63578 8.71276 6.91576 9.54379 6.01573 9.54379ZM11.9902 9.54379C11.1073 9.54379 10.3701 8.71276 10.3701 7.68928C10.3701 6.66579 11.0902 5.83476 11.9902 5.83476C12.8988 5.83476 13.6188 6.67454 13.6102 7.68928C13.6102 8.71276 12.8988 9.54379 11.9902 9.54379Z" fill="white"/>
</svg>
