<svg width="24" height="24" viewBox="0 0 24 24" fill="none" xmlns="http://www.w3.org/2000/svg">
<path d="M15.4133 9.20062L7.97656 15.2761L3.67363 10.9744C3.55882 10.8594 3.47529 10.717 3.43096 10.5607C3.38663 10.4044 3.38298 10.2394 3.42034 10.0812C3.4577 9.92312 3.53484 9.77716 3.64444 9.65722C3.75404 9.53727 3.89247 9.44732 4.0466 9.39589L18.9766 4.41923C19.1445 4.3635 19.3246 4.35557 19.4967 4.39633C19.6689 4.43708 19.8263 4.52491 19.9514 4.65C20.0764 4.77509 20.1643 4.93251 20.205 5.10465C20.2458 5.2768 20.2379 5.45688 20.1821 5.62478L15.2067 20.5535C15.1553 20.7076 15.0653 20.8461 14.9454 20.9557C14.8255 21.0653 14.6795 21.1424 14.5214 21.1798C14.3632 21.2171 14.1982 21.2135 14.0419 21.1691C13.8856 21.1248 13.7432 21.0413 13.6282 20.9265L9.3259 16.6242L15.4139 9.19999L15.4133 9.20062Z" fill="white"/>
</svg>
