<svg width="18" height="18" viewBox="0 0 18 18" fill="none" xmlns="http://www.w3.org/2000/svg">
    <path d="M16.5 8.175V3.075C16.5 1.95 16.02 1.5 14.8275 1.5H11.7975C10.605 1.5 10.125 1.95 10.125 3.075V8.175C10.125 9.3 10.605 9.75 11.7975 9.75H14.8275C16.02 9.75 16.5 9.3 16.5 8.175Z" fill="#43D101" stroke="#43D101" stroke-linecap="round" stroke-linejoin="round"/>
    <path d="M16.5 14.925V13.575C16.5 12.45 16.02 12 14.8275 12H11.7975C10.605 12 10.125 12.45 10.125 13.575V14.925C10.125 16.05 10.605 16.5 11.7975 16.5H14.8275C16.02 16.5 16.5 16.05 16.5 14.925Z" fill="#43D101" stroke="#43D101" stroke-linecap="round" stroke-linejoin="round"/>
    <path d="M7.875 9.825V14.925C7.875 16.05 7.395 16.5 6.2025 16.5H3.1725C1.98 16.5 1.5 16.05 1.5 14.925V9.825C1.5 8.7 1.98 8.25 3.1725 8.25H6.2025C7.395 8.25 7.875 8.7 7.875 9.825Z" fill="white" stroke="white" stroke-linecap="round" stroke-linejoin="round"/>
    <path d="M7.875 3.075V4.425C7.875 5.55 7.395 6 6.2025 6H3.1725C1.98 6 1.5 5.55 1.5 4.425V3.075C1.5 1.95 1.98 1.5 3.1725 1.5H6.2025C7.395 1.5 7.875 1.95 7.875 3.075Z" fill="#43D101" stroke="#43D101" stroke-linecap="round" stroke-linejoin="round"/>
</svg>
